# xmcd
#
# Track frame offsets:
#	150
#	25807
#	42260
#	78110
#	98637
#	133692
#	152405
#	196125
#
# Disc length: 2911 seconds
#
# Revision: 0
# Processed by: cddbd v1.5.1PL0 Copyright (c) Steve Scherf et al.
# Submitted via: dBpowerAMP V4.0
#
DISCID=520b5d08
DTITLE=Barney Kassel - Yesterday
DYEAR=1900
DGENRE=
TTITLE0=Laura
TTITLE1=Yesterday
TTITLE2=It's A Blue World
TTITLE3=Old Devil Moon
TTITLE4=Summertime
TTITLE5=In The Garden Of Love
TTITLE6=Bridging The Blues
TTITLE7=Tea For Two
EXTD=
EXTT0=
EXTT1=
EXTT2=
EXTT3=
EXTT4=
EXTT5=
EXTT6=
EXTT7=
PLAYORDER=
